<svg width="582" height="258" viewBox="0 0 582 258" fill="none" xmlns="http://www.w3.org/2000/svg">
<g clip-path="url(#clip0_5_16695)">
<path d="M0 0C192.06 0 384.12 0 582 0C582 85.14 582 170.28 582 258C389.94 258 197.88 258 0 258C0 172.86 0 87.72 0 0Z" fill="white"/>
<path d="M411.631 114.749C414.43 114.703 417.228 114.669 420.027 114.647C420.977 114.638 421.926 114.625 422.876 114.609C436.694 114.38 436.694 114.38 442.037 119.503C445.999 123.749 447.181 128.646 446.997 134.324C446.74 138.967 444.91 143.211 441.743 146.637C440.172 148.002 438.354 148.982 436.5 149.914C436.227 150.058 435.954 150.201 435.672 150.349C434.079 150.822 432.516 150.776 430.863 150.77C430.53 150.776 430.198 150.782 429.856 150.788C425.188 150.791 421.676 149.188 418.336 145.981C417.425 145.066 417.063 144.461 416.457 143.251C416.334 151.069 416.212 158.887 416.085 166.941C414.738 166.941 413.391 166.941 412.003 166.941C412.003 152.405 412.003 137.869 412.003 122.892C414.714 123.343 414.714 123.343 415.737 124.713C416.502 126.405 416.309 128.312 416.294 130.134C416.37 134.919 416.682 139.581 420.168 143.251C423.625 145.964 426.924 147.015 431.304 146.582C435.268 145.688 437.85 144.25 440.078 140.872C441.554 138.085 441.881 135.846 441.859 132.725C441.866 132.36 441.874 131.995 441.881 131.619C441.879 128.014 440.656 125.001 438.199 122.315C435.111 119.375 431.276 118.97 427.181 118.965C426.734 118.959 426.287 118.953 425.826 118.947C424.412 118.929 422.998 118.921 421.583 118.913C420.619 118.903 419.654 118.892 418.689 118.88C416.336 118.853 413.984 118.834 411.631 118.821C411.631 117.477 411.631 116.133 411.631 114.749Z" fill="#9131EA"/>
<path d="M371.545 114.749C374.343 114.703 377.142 114.669 379.94 114.647C380.89 114.638 381.84 114.625 382.789 114.609C389.794 114.493 396.536 114.399 401.95 119.49C405.604 123.352 406.996 128.23 406.963 133.446C406.801 138.373 405.007 142.972 401.665 146.611C398.286 149.626 394.584 150.803 390.15 150.77C389.856 150.768 389.563 150.766 389.261 150.764C384.394 150.663 381.035 148.779 377.636 145.365C377.112 144.732 377.112 144.732 376.37 143.251C376.247 151.069 376.125 158.887 375.999 166.941C374.651 166.941 373.304 166.941 371.916 166.941C371.916 152.405 371.916 137.869 371.916 122.892C374.627 123.343 374.627 123.343 375.651 124.713C376.415 126.406 376.222 128.312 376.207 130.134C376.292 135.253 376.735 139.724 380.453 143.621C383.825 146.222 387.373 147.048 391.588 146.583C394.801 145.699 397.548 144.527 399.429 141.678C399.606 141.416 399.783 141.155 399.965 140.886C401.489 138.113 401.794 135.847 401.772 132.725C401.779 132.36 401.787 131.995 401.795 131.619C401.792 128.014 400.569 125.001 398.113 122.315C395.025 119.375 391.19 118.97 387.095 118.965C386.647 118.959 386.2 118.953 385.739 118.947C384.325 118.929 382.911 118.921 381.497 118.913C380.532 118.903 379.567 118.892 378.602 118.88C376.25 118.853 373.897 118.834 371.545 118.821C371.545 117.477 371.545 116.133 371.545 114.749Z" fill="#9131EA"/>
<path d="M173.338 105.125C173.895 106.792 173.02 107.921 172.294 109.428C171.954 110.153 171.615 110.879 171.278 111.606C171.081 112.029 170.884 112.452 170.681 112.888C169.395 115.678 168.164 118.493 166.927 121.304C166.475 122.328 166.023 123.352 165.57 124.375C165.286 125.019 165.003 125.662 164.72 126.305C164.589 126.6 164.459 126.894 164.324 127.198C164.141 127.614 164.141 127.614 163.955 128.039C163.796 128.399 163.796 128.399 163.634 128.767C163.236 129.753 162.911 130.768 162.574 131.776C166.004 131.776 169.433 131.776 172.967 131.776C173.089 132.265 173.212 132.753 173.338 133.257C172.68 134.149 172.68 134.149 171.714 135.131C171.368 135.491 171.022 135.852 170.677 136.214C170.501 136.398 170.325 136.582 170.143 136.771C169.346 137.631 168.619 138.542 167.886 139.457C166.965 140.597 166.043 141.679 164.987 142.696C163.945 143.699 163.039 144.763 162.133 145.889C160.853 147.477 159.516 148.984 158.12 150.469C156.457 152.24 154.896 154.063 153.373 155.955C152.22 157.348 150.99 158.665 149.763 159.994C148.833 161.028 147.952 162.089 147.077 163.17C145.879 164.647 144.688 166.038 143.273 167.311C143.028 167.311 142.783 167.311 142.531 167.311C143.112 165.784 143.817 164.333 144.556 162.877C144.824 162.346 145.091 161.816 145.359 161.286C145.573 160.862 145.573 160.862 145.792 160.43C147.097 157.846 148.395 155.259 149.695 152.673C150.039 151.987 150.385 151.301 150.73 150.616C151.239 149.605 151.747 148.593 152.255 147.582C152.407 147.281 152.558 146.981 152.714 146.671C153.833 144.441 154.856 142.194 155.893 139.92C152.463 139.92 149.034 139.92 145.5 139.92C145.316 139.004 145.316 139.004 145.129 138.069C145.706 137.222 145.706 137.222 146.567 136.357C147.792 135.081 148.96 133.801 150.07 132.424C151.366 130.827 152.692 129.26 154.037 127.705C155.35 126.186 156.646 124.659 157.911 123.101C159.825 120.751 161.824 118.476 163.817 116.193C166.474 113.142 169.098 110.064 171.709 106.975C172.929 105.533 172.929 105.533 173.338 105.125Z" fill="#9530F1"/>
<path d="M270.957 114.749C273.518 114.712 276.079 114.685 278.641 114.668C279.511 114.66 280.381 114.65 281.25 114.637C282.507 114.619 283.764 114.611 285.021 114.604C285.404 114.597 285.787 114.589 286.181 114.581C290.187 114.58 294.015 115.606 296.939 118.451C298.162 119.833 299.18 121.053 299.537 122.892C299.782 122.892 300.027 122.892 300.279 122.892C300.325 122.492 300.325 122.492 300.371 122.083C301.026 119.644 303.454 117.586 305.522 116.23C309.071 114.27 313.302 114.279 317.203 115.188C320.631 116.343 323.33 118.554 324.964 121.77C326.126 124.439 326.681 126.775 326.675 129.693C326.675 130.152 326.675 130.612 326.675 131.085C326.673 131.58 326.671 132.076 326.669 132.571C326.668 133.083 326.668 133.594 326.667 134.106C326.666 135.446 326.662 136.785 326.658 138.125C326.654 139.495 326.653 140.865 326.651 142.235C326.647 144.918 326.64 147.601 326.633 150.284C325.163 150.284 323.693 150.284 322.179 150.284C322.175 149.61 322.172 148.936 322.168 148.242C322.155 146.001 322.135 143.759 322.11 141.518C322.096 140.161 322.084 138.804 322.078 137.447C322.072 136.134 322.059 134.821 322.042 133.508C322.034 132.77 322.033 132.032 322.032 131.295C321.973 127.55 321.406 124.001 318.72 121.197C316.617 119.426 314.48 118.951 311.786 119.006C311.505 119 311.225 118.994 310.936 118.988C308.454 119.005 306.582 119.762 304.67 121.334C304.476 121.558 304.283 121.782 304.084 122.013C303.887 122.232 303.69 122.45 303.487 122.676C301.427 125.913 301.17 128.941 301.167 132.716C301.161 133.225 301.155 133.735 301.148 134.244C301.132 135.572 301.125 136.899 301.119 138.227C301.112 139.587 301.096 140.947 301.081 142.307C301.053 144.966 301.035 147.625 301.022 150.284C299.552 150.284 298.082 150.284 296.568 150.284C296.566 149.601 296.565 148.918 296.563 148.214C296.556 145.94 296.54 143.666 296.519 141.393C296.506 140.016 296.497 138.639 296.495 137.263C296.493 135.93 296.483 134.599 296.466 133.266C296.459 132.519 296.461 131.771 296.463 131.023C296.413 127.795 295.754 125.412 294.341 122.522C294.157 121.973 294.157 121.973 293.969 121.412C293.28 121.001 293.28 121.001 292.485 120.671C292.273 120.543 292.061 120.415 291.843 120.283C289.653 119.016 287.657 118.968 285.166 118.965C284.758 118.959 284.35 118.953 283.93 118.947C282.637 118.929 281.344 118.921 280.05 118.913C279.17 118.903 278.289 118.892 277.409 118.88C275.258 118.853 273.107 118.834 270.957 118.821C270.957 117.477 270.957 116.133 270.957 114.749Z" fill="#9131EA"/>
<path d="M350.917 114.677C351.537 114.678 351.537 114.678 352.17 114.68C353.47 114.684 354.771 114.693 356.071 114.703C356.961 114.706 357.851 114.71 358.741 114.713C360.906 114.721 363.07 114.734 365.235 114.749C365.235 116.093 365.235 117.436 365.235 118.821C364.647 118.826 364.059 118.831 363.454 118.837C361.261 118.859 359.068 118.887 356.875 118.918C355.928 118.93 354.982 118.94 354.035 118.949C352.669 118.961 351.304 118.981 349.938 119.001C349.519 119.004 349.1 119.006 348.668 119.009C344.678 119.081 341.5 119.805 338.51 122.522C335.08 126.133 334.969 130.316 335.042 135.034C335.142 137.357 335.742 139.091 337.026 141.03C337.178 141.301 337.331 141.572 337.488 141.851C338.967 144.198 341.106 145.364 343.707 146.212C347.943 147.001 351.76 146.6 355.515 144.338C358.366 142.065 359.771 138.594 360.409 135.108C360.549 132.961 360.519 130.813 360.475 128.662C360.499 125.536 360.499 125.536 361.312 124.315C362.713 123.023 363.226 122.892 365.235 122.892C365.235 131.932 365.235 140.971 365.235 150.284C363.765 150.284 362.295 150.284 360.781 150.284C360.658 147.963 360.536 145.642 360.409 143.251C359.95 143.904 359.95 143.904 359.482 144.57C357.174 147.599 354.54 149.781 350.759 150.654C345.655 151.287 341.306 151.039 337.026 148.063C336.762 147.89 336.498 147.718 336.227 147.54C333.155 145.247 330.971 141.058 330.344 137.329C330.236 135.78 330.225 134.231 330.205 132.678C330.191 132.265 330.177 131.852 330.163 131.426C330.114 126.767 331.932 122.644 335.086 119.215C339.476 115.061 345.133 114.62 350.917 114.677Z" fill="#9131E9"/>
<path d="M244.597 115.077C245.036 115.077 245.474 115.077 245.925 115.077C246.395 115.079 246.864 115.081 247.348 115.083C247.831 115.083 248.315 115.084 248.813 115.085C250.094 115.086 251.375 115.09 252.655 115.094C253.964 115.098 255.273 115.099 256.582 115.101C259.146 115.105 261.711 115.111 264.276 115.119C264.276 116.341 264.276 117.562 264.276 118.821C263.677 118.824 263.078 118.828 262.46 118.831C260.226 118.846 257.992 118.87 255.757 118.898C254.793 118.908 253.828 118.916 252.863 118.921C251.472 118.929 250.08 118.946 248.689 118.965C248.262 118.966 247.834 118.966 247.394 118.967C243.505 119.036 239.986 120.081 237.18 122.892C236.413 123.948 235.853 125.034 235.324 126.224C235.205 126.466 235.087 126.708 234.964 126.957C233.391 130.712 233.774 135.606 235.224 139.331C236.877 142.694 239.317 144.764 242.747 146.212C246.233 147.309 250.11 146.659 253.293 145.008C256.476 143.063 258.182 140.543 259.079 136.958C259.398 135.582 259.5 134.299 259.515 132.887C259.524 132.467 259.533 132.047 259.542 131.614C259.558 130.735 259.57 129.856 259.577 128.977C259.587 128.557 259.598 128.137 259.608 127.704C259.614 127.323 259.619 126.941 259.625 126.548C259.871 125.216 260.375 124.603 261.306 123.633C262.42 122.892 262.42 122.892 264.276 122.892C264.276 131.932 264.276 140.971 264.276 150.284C262.806 150.284 261.336 150.284 259.821 150.284C259.638 146.986 259.638 146.986 259.45 143.621C259.037 144.186 258.623 144.751 258.198 145.333C256.638 147.276 255.023 148.495 252.769 149.544C252.557 149.643 252.345 149.742 252.127 149.843C250.071 150.715 248.189 150.842 245.972 150.816C245.455 150.812 245.455 150.812 244.928 150.807C240.253 150.692 237.192 149.107 233.862 145.887C229.77 141.533 229.17 136.602 229.292 130.877C229.376 128.832 229.737 127.016 230.499 125.113C230.616 124.804 230.734 124.495 230.855 124.176C232.585 120.213 235.638 117.694 239.495 115.881C241.21 115.226 242.768 115.073 244.597 115.077Z" fill="#9131EA"/>
<path d="M162.203 109.196C160.969 111.708 159.564 114.244 156.805 115.209C155.85 115.381 154.892 115.534 153.931 115.667C149.277 116.316 145.121 118.903 142.159 122.522C141.348 123.721 140.63 124.956 139.932 126.224C139.726 126.567 139.519 126.911 139.306 127.265C137.038 132.758 137.124 138.535 139.271 144.04C140.408 146.503 141.812 148.314 143.77 150.19C144.386 151.024 144.386 151.024 144.355 151.944C144.001 152.914 143.585 153.764 143.064 154.657C142.895 154.949 142.726 155.241 142.552 155.543C142.423 155.762 142.293 155.981 142.159 156.207C138.288 154.917 136.03 150.469 134.201 147.068C131.221 140.966 130.767 133.793 132.88 127.334C133.295 126.172 133.788 125.094 134.365 124.003C134.548 123.653 134.731 123.302 134.92 122.941C137.023 119.134 139.639 116.054 143.273 113.638C143.496 113.48 143.719 113.322 143.949 113.158C149.627 109.32 155.611 109.072 162.203 109.196Z" fill="#4F0098"/>
<path d="M175.936 115.119C180.859 117.762 183.651 123.698 185.216 128.815C187.044 135.052 186.133 142.32 183.104 148.04C179.139 155.081 173.083 159.607 165.404 161.944C162.249 162.711 159.12 162.632 155.893 162.499C156.714 160.048 158.403 158.239 160.347 156.577C161.243 156.256 161.9 156.206 162.847 156.208C167.156 156.201 171.269 153.162 174.243 150.33C178.65 145.665 180.273 140.132 180.144 133.821C179.916 129.413 177.901 125.571 175.194 122.152C174.911 121.905 174.628 121.659 174.337 121.405C173.709 120.672 173.709 120.672 173.742 119.776C174.104 118.754 174.53 117.816 175.031 116.854C175.2 116.527 175.369 116.201 175.543 115.864C175.738 115.495 175.738 115.495 175.936 115.119Z" fill="#4F0098"/>
<path d="M227.529 105.495C226.963 107.418 226.112 109.085 225.163 110.839C224.828 111.467 224.492 112.095 224.157 112.723C223.98 113.053 223.804 113.382 223.622 113.722C222.496 115.836 221.392 117.962 220.285 120.086C219.384 121.812 218.477 123.535 217.553 125.249C217.384 125.562 217.216 125.876 217.043 126.198C216.731 126.779 216.417 127.357 216.101 127.935C214.38 131.142 213.631 133.953 213.606 137.596C213.599 137.961 213.593 138.326 213.586 138.702C213.566 139.856 213.553 141.01 213.541 142.164C213.528 142.951 213.516 143.738 213.502 144.526C213.471 146.445 213.446 148.364 213.425 150.284C211.955 150.284 210.485 150.284 208.971 150.284C208.934 147.927 208.907 145.57 208.889 143.213C208.882 142.412 208.872 141.611 208.859 140.811C208.841 139.655 208.832 138.499 208.826 137.343C208.818 136.99 208.81 136.636 208.802 136.272C208.802 133.724 209.358 131.843 210.455 129.555C210.719 128.994 210.719 128.994 210.988 128.422C211.602 127.134 212.23 125.854 212.864 124.575C213.035 124.229 213.035 124.229 213.21 123.876C213.813 122.659 214.417 121.442 215.024 120.225C215.645 118.978 216.26 117.726 216.873 116.474C217.35 115.503 217.832 114.535 218.316 113.567C218.545 113.107 218.772 112.646 218.997 112.184C220.281 109.549 221.377 107.55 223.818 105.865C225.107 105.437 226.179 105.47 227.529 105.495Z" fill="#9131EA"/>
<path d="M270.957 122.522C273.271 122.907 273.594 123.096 275.04 124.743C275.162 124.865 275.285 124.987 275.411 125.113C275.446 125.897 275.454 126.682 275.453 127.466C275.453 127.711 275.453 127.957 275.453 128.21C275.453 129.025 275.45 129.84 275.447 130.656C275.446 131.219 275.446 131.783 275.445 132.347C275.444 133.834 275.44 135.32 275.436 136.807C275.432 138.323 275.431 139.839 275.429 141.355C275.425 144.331 275.419 147.308 275.411 150.284C273.941 150.284 272.471 150.284 270.957 150.284C270.957 141.123 270.957 131.961 270.957 122.522Z" fill="#9131EA"/>
<path d="M194.495 105.495C200.174 107.848 203.25 112.395 205.607 117.918C206.316 119.684 206.793 121.186 206.78 123.095C206.779 123.407 206.777 123.72 206.776 124.042C206.772 124.526 206.772 124.526 206.767 125.021C206.765 125.35 206.763 125.678 206.762 126.017C206.757 126.826 206.751 127.636 206.744 128.445C205.569 127.454 204.973 126.187 204.298 124.84C204.108 124.468 204.108 124.468 203.914 124.089C203.643 123.558 203.372 123.026 203.103 122.494C202.4 121.105 201.69 119.72 200.98 118.335C200.839 118.059 200.698 117.784 200.553 117.5C199.146 114.763 197.672 112.065 196.162 109.382C195.995 109.082 195.827 108.781 195.655 108.472C195.438 108.089 195.438 108.089 195.217 107.697C194.862 106.968 194.662 106.287 194.495 105.495Z" fill="#9131EA"/>
<path d="M168.513 110.677C168.635 110.922 168.758 111.166 168.884 111.418C168.149 112.273 167.414 113.128 166.657 114.009C166.412 113.887 166.167 113.764 165.915 113.639C166.772 112.661 167.629 111.684 168.513 110.677Z" fill="#842BD6"/>
</g>
<defs>
<clipPath id="clip0_5_16695">
<rect width="582" height="258" fill="white"/>
</clipPath>
</defs>
</svg>
